# xmcd
#
# Track frame offsets:
#	150
#	8940
#	20803
#	37153
#	53949
#	63287
#	77637
#	100467
#	114046
#	126153
#	140179
#	163171
#	172171
#	192549
#	201803
#
# Disc length: 3039 seconds
#
# Revision: 1
# Processed by: cddbd v1.5.2PL0 Copyright (c) Steve Scherf et al.
# Submitted via: audiograbber 1.83.01
#
DISCID=df0bdd0f
DTITLE=Dirty Curtain Bluesband - Snake Steak
DYEAR=2005
DGENRE=Blues
TTITLE0=The Fox
TTITLE1=After you stepped into my life
TTITLE2=Bad news today
TTITLE3=I don't play
TTITLE4=Mini-Skirt-Baby
TTITLE5=Look out sugar
TTITLE6=Womanized
TTITLE7=Gone
TTITLE8=Give me a call when you go
TTITLE9=Woman in the Petshop
TTITLE10=Low down dirty shame
TTITLE11=I cry for you
TTITLE12=I got a trick
TTITLE13=Dirty Curtain Boogie
TTITLE14=Snake Steak
EXTD=Erstveröffentlichung 2003
EXTT0=
EXTT1=
EXTT2=
EXTT3=
EXTT4=
EXTT5=
EXTT6=
EXTT7=
EXTT8=
EXTT9=
EXTT10=
EXTT11=
EXTT12=
EXTT13=
EXTT14=
PLAYORDER=
